<mxfile host="app.diagrams.net" modified="2023-05-01T21:49:38.443Z" agent="Mozilla/5.0 (Windows NT 10.0; Win64; x64) AppleWebKit/537.36 (KHTML, like Gecko) Chrome/112.0.0.0 Safari/537.36 Edg/112.0.1722.58" etag="Gnlu8bITY57ftdIIfSf-" version="21.2.3" type="github">
  <diagram name="Página-1" id="1CSgYSEQ3Huy4OzQsvCH">
    <mxGraphModel dx="1099" dy="1066" grid="1" gridSize="10" guides="1" tooltips="1" connect="1" arrows="1" fold="1" page="1" pageScale="1" pageWidth="827" pageHeight="1169" math="0" shadow="0">
      <root>
        <mxCell id="0" />
        <mxCell id="1" parent="0" />
        <mxCell id="upEOcmTDrx1A9aE9RCZn-7" value="" style="edgeStyle=orthogonalEdgeStyle;rounded=0;orthogonalLoop=1;jettySize=auto;html=1;" edge="1" parent="1" source="upEOcmTDrx1A9aE9RCZn-1" target="upEOcmTDrx1A9aE9RCZn-6">
          <mxGeometry relative="1" as="geometry" />
        </mxCell>
        <mxCell id="upEOcmTDrx1A9aE9RCZn-1" value="Login" style="rounded=1;whiteSpace=wrap;html=1;fillColor=#f5f5f5;strokeColor=#666666;fontColor=#333333;" vertex="1" parent="1">
          <mxGeometry x="360" y="40" width="120" height="40" as="geometry" />
        </mxCell>
        <mxCell id="upEOcmTDrx1A9aE9RCZn-9" value="" style="edgeStyle=orthogonalEdgeStyle;rounded=0;orthogonalLoop=1;jettySize=auto;html=1;" edge="1" parent="1" source="upEOcmTDrx1A9aE9RCZn-6" target="upEOcmTDrx1A9aE9RCZn-8">
          <mxGeometry relative="1" as="geometry" />
        </mxCell>
        <mxCell id="upEOcmTDrx1A9aE9RCZn-11" value="" style="edgeStyle=orthogonalEdgeStyle;rounded=0;orthogonalLoop=1;jettySize=auto;html=1;" edge="1" parent="1" source="upEOcmTDrx1A9aE9RCZn-6" target="upEOcmTDrx1A9aE9RCZn-10">
          <mxGeometry relative="1" as="geometry" />
        </mxCell>
        <mxCell id="upEOcmTDrx1A9aE9RCZn-6" value="Página principal" style="whiteSpace=wrap;html=1;rounded=1;fillColor=#d5e8d4;strokeColor=#82b366;" vertex="1" parent="1">
          <mxGeometry x="360" y="120" width="120" height="40" as="geometry" />
        </mxCell>
        <mxCell id="upEOcmTDrx1A9aE9RCZn-8" value="Consultar plantas por categoría" style="whiteSpace=wrap;html=1;rounded=1;fillColor=#dae8fc;strokeColor=#6c8ebf;" vertex="1" parent="1">
          <mxGeometry x="200" y="200" width="120" height="60" as="geometry" />
        </mxCell>
        <mxCell id="upEOcmTDrx1A9aE9RCZn-15" value="" style="edgeStyle=orthogonalEdgeStyle;rounded=0;orthogonalLoop=1;jettySize=auto;html=1;" edge="1" parent="1" source="upEOcmTDrx1A9aE9RCZn-10" target="upEOcmTDrx1A9aE9RCZn-14">
          <mxGeometry relative="1" as="geometry" />
        </mxCell>
        <mxCell id="upEOcmTDrx1A9aE9RCZn-10" value="Compartir información mediante una publicación" style="whiteSpace=wrap;html=1;rounded=1;fillColor=#dae8fc;strokeColor=#6c8ebf;" vertex="1" parent="1">
          <mxGeometry x="360" y="200" width="120" height="60" as="geometry" />
        </mxCell>
        <mxCell id="upEOcmTDrx1A9aE9RCZn-14" value="Página de error" style="whiteSpace=wrap;html=1;rounded=1;fillColor=#f8cecc;strokeColor=#b85450;" vertex="1" parent="1">
          <mxGeometry x="360" y="300" width="120" height="40" as="geometry" />
        </mxCell>
      </root>
    </mxGraphModel>
  </diagram>
</mxfile>
